<?xml version="1.0" encoding="utf-8"?>
<!-- Generator: Adobe Illustrator 19.1.0, SVG Export Plug-In . SVG Version: 6.00 Build 0)  -->
<svg version="1.1" id="Layer_1" xmlns="http://www.w3.org/2000/svg" xmlns:xlink="http://www.w3.org/1999/xlink" x="0px" y="0px"
	 viewBox="0 0 300 162.8" style="enable-background:new 0 0 300 162.8;" xml:space="preserve">
<style type="text/css">
	.st0{fill:#FCBB04;}
	.st1{opacity:0.25;fill:#FFFFFF;}
	.st2{fill:#414042;}
</style>
<g>
	<g>
		<g>
			<polygon class="st0" points="46.3,51 46.3,131.9 52.7,131.9 52.7,138.3 133.6,138.3 133.6,51 			"/>
			<polygon class="st0" points="40.1,24.3 40.1,18.1 13.4,18.1 13.4,51 46.3,51 46.3,24.3 			"/>
			<rect x="30.8" y="135.3" class="st0" width="18.5" height="18.5"/>
			<rect x="21.8" y="153.8" class="st0" width="9" height="9"/>
			<rect x="43.5" y="4.4" class="st0" width="16.5" height="16.5"/>
			<rect x="39.1" y="0" class="st0" width="4.4" height="4.4"/>
			<rect x="17" y="97.9" class="st0" width="7.3" height="7.3"/>
			<rect x="24.4" y="95.3" class="st0" width="2.6" height="2.6"/>
			<polygon class="st0" points="18.4,80.9 0,80.9 0,99.3 14.7,99.3 14.7,95.6 18.4,95.6 			"/>
		</g>
		<polygon class="st1" points="133.6,51 52.7,131.9 46.3,131.9 46.3,51 		"/>
		<polygon class="st1" points="60,4.4 43.5,20.9 43.5,4.4 		"/>
		<polygon class="st1" points="40.1,24.3 13.4,51 13.4,18.1 40.1,18.1 		"/>
		<polygon class="st1" points="43.5,0 39.1,4.4 39.1,0 		"/>
		<polygon class="st1" points="18.4,80.9 0,99.3 0,80.9 		"/>
		<polygon class="st1" points="27,95.3 24.4,97.9 24.4,95.3 		"/>
		<polygon class="st1" points="17,105.3 24.4,97.9 17,97.9 		"/>
		<polygon class="st1" points="21.8,162.8 30.8,153.8 21.8,153.8 		"/>
		<polygon class="st1" points="30.8,135.3 49.3,135.3 30.8,153.8 		"/>
	</g>
	<g>
		<g>
			<path class="st2" d="M171.2,78.5c-1.3-1.1-2.6-2-3.9-2.5c-1.3-0.5-2.8-0.8-4.3-0.8c-3.1,0-5.6,0.9-7.4,2.8
				c-1.9,1.9-2.8,4.4-2.8,7.5c0,3.1,0.9,5.5,2.6,7.3c1.7,1.8,4.1,2.7,7,2.7c1.7,0,3.3-0.3,4.7-0.8c1.5-0.6,2.8-1.4,4-2.5l0,6.4
				c-1.3,0.8-2.7,1.4-4.2,1.8c-1.5,0.4-3,0.6-4.6,0.6c-4.7,0-8.5-1.4-11.5-4.3c-3-2.9-4.5-6.6-4.5-11c0-4.4,1.5-8.1,4.5-11
				c3-2.9,6.9-4.3,11.6-4.3c1.6,0,3.1,0.2,4.6,0.5c1.5,0.3,2.9,0.8,4.4,1.5L171.2,78.5z"/>
			<path class="st2" d="M198.2,100.2H191l-7.7-13.7v13.7H177V70.9h8.9c3.6,0,6.2,0.7,8,2.1c1.8,1.4,2.7,3.5,2.7,6.2
				c0,2-0.6,3.7-1.8,5.2c-1.2,1.4-2.8,2.3-4.7,2.5L198.2,100.2z M183.3,83.4h0.9c2.5,0,4.2-0.3,5-0.8c0.8-0.6,1.2-1.5,1.2-2.9
				c0-1.4-0.4-2.5-1.3-3.1c-0.9-0.6-2.5-0.9-4.9-0.9h-0.9V83.4z"/>
			<path class="st2" d="M207.1,100.2V86.8l-9.9-15.9h7.3l4.3,8c0.2,0.4,0.4,0.9,0.7,1.5c0.2,0.6,0.5,1.3,0.7,2.1
				c0.2-0.7,0.4-1.3,0.6-1.9c0.2-0.6,0.5-1.2,0.8-1.8l4.3-8h7.3l-9.9,15.9v13.3H207.1z"/>
			<path class="st2" d="M225.9,100.2V70.9h7.2c3.8,0,6.7,0.7,8.5,2.2c1.8,1.5,2.7,3.7,2.7,6.8c0,2.8-0.9,5.1-2.8,6.7
				c-1.8,1.6-4.4,2.4-7.7,2.4h-1.7v11.2H225.9z M232.2,84.1h0.9c1.7,0,2.9-0.4,3.7-1.1c0.8-0.7,1.2-1.8,1.2-3.4
				c0-1.4-0.4-2.5-1.2-3.1c-0.8-0.7-2-1-3.7-1h-0.9V84.1z"/>
			<path class="st2" d="M259.5,76.2v23.9h-6.3V76.2h-7.1v-5.3h20.6v5.3H259.5z"/>
			<path class="st2" d="M300,85.6c0,2.1-0.4,4.1-1.2,5.9c-0.8,1.9-1.9,3.5-3.4,4.9c-1.5,1.5-3.2,2.6-5.1,3.3
				c-1.9,0.8-3.9,1.2-5.9,1.2c-1.8,0-3.5-0.3-5.2-0.9c-1.7-0.6-3.3-1.5-4.7-2.6c-1.8-1.5-3.2-3.2-4.2-5.3c-1-2-1.5-4.2-1.5-6.6
				c0-2.1,0.4-4.1,1.2-5.9c0.8-1.8,1.9-3.5,3.4-4.9c1.5-1.4,3.2-2.5,5.1-3.3c1.9-0.8,3.9-1.2,6-1.2c2,0,4,0.4,5.9,1.2
				c1.9,0.8,3.6,1.9,5.1,3.3c1.5,1.4,2.6,3.1,3.4,4.9C299.6,81.5,300,83.5,300,85.6z M284.4,95.4c2.6,0,4.8-0.9,6.6-2.8
				c1.7-1.9,2.6-4.2,2.6-7c0-2.8-0.9-5.1-2.6-7c-1.7-1.9-3.9-2.8-6.5-2.8c-2.6,0-4.8,0.9-6.6,2.8c-1.7,1.9-2.6,4.2-2.6,7
				c0,2.8,0.9,5.2,2.6,7C279.5,94.4,281.7,95.4,284.4,95.4z"/>
		</g>
		<g>
			<path class="st2" d="M146.4,127.1l6-15.9h3.9l6.1,15.9h-3.9l-1.3-3.4h-6.1l-1.1,3.4H146.4z M156.5,121.1l-1.8-5.1
				c-0.1-0.2-0.1-0.4-0.2-0.8c-0.1-0.4-0.2-0.8-0.2-1.4c-0.1,0.5-0.2,1-0.3,1.4c-0.1,0.4-0.2,0.7-0.2,0.8l-1.7,5.1H156.5z"/>
			<path class="st2" d="M171.6,126.8c-0.4,0.3-0.9,0.4-1.3,0.6c-0.5,0.1-1,0.2-1.5,0.2c-1.7,0-3-0.5-4.1-1.6s-1.6-2.5-1.6-4.2
				c0-1.7,0.5-3,1.6-4.1c1.1-1.1,2.4-1.6,4.1-1.6c0.6,0,1.1,0.1,1.5,0.2c0.4,0.1,0.9,0.3,1.3,0.5l0,3.1c-0.3-0.3-0.7-0.6-1.1-0.8
				c-0.4-0.2-0.9-0.3-1.4-0.3c-0.9,0-1.6,0.3-2.1,0.8c-0.5,0.5-0.8,1.2-0.8,2.1c0,0.9,0.3,1.6,0.8,2.1c0.5,0.5,1.2,0.8,2.2,0.8
				c0.5,0,0.9-0.1,1.3-0.3c0.4-0.2,0.7-0.5,1.1-0.8L171.6,126.8z"/>
			<path class="st2" d="M181.8,126.8c-0.4,0.3-0.9,0.4-1.3,0.6c-0.5,0.1-1,0.2-1.5,0.2c-1.7,0-3-0.5-4.1-1.6s-1.6-2.5-1.6-4.2
				c0-1.7,0.5-3,1.6-4.1c1.1-1.1,2.4-1.6,4.1-1.6c0.6,0,1.1,0.1,1.5,0.2c0.4,0.1,0.9,0.3,1.3,0.5l0,3.1c-0.3-0.3-0.7-0.6-1.1-0.8
				c-0.4-0.2-0.9-0.3-1.4-0.3c-0.9,0-1.6,0.3-2.1,0.8s-0.8,1.2-0.8,2.1c0,0.9,0.3,1.6,0.8,2.1c0.5,0.5,1.2,0.8,2.2,0.8
				c0.5,0,0.9-0.1,1.3-0.3c0.4-0.2,0.7-0.5,1.1-0.8L181.8,126.8z"/>
			<path class="st2" d="M194.5,122.5h-8c0.1,0.8,0.4,1.3,0.8,1.7c0.4,0.4,1,0.6,1.8,0.6c0.6,0,1-0.1,1.5-0.3s0.7-0.5,1-1l2.5,1.2
				c-0.6,0.9-1.3,1.6-2.1,2.1c-0.8,0.5-1.8,0.7-2.9,0.7c-1.7,0-3.1-0.5-4.1-1.5c-1-1-1.5-2.4-1.5-4.1c0-1.7,0.5-3,1.6-4.1
				c1.1-1.1,2.4-1.6,4-1.6c1.7,0,3,0.5,4,1.5c1,1,1.5,2.4,1.5,4.1c0,0.1,0,0.2,0,0.3C194.6,122.2,194.5,122.3,194.5,122.5z
				 M191.5,120.7c-0.1-0.7-0.3-1.2-0.7-1.5s-0.9-0.5-1.6-0.5s-1.2,0.2-1.7,0.5s-0.7,0.9-0.8,1.5H191.5z"/>
			<path class="st2" d="M196.9,131.9v-15.5h3v1.8c0.4-0.7,0.9-1.2,1.5-1.6c0.6-0.4,1.3-0.5,2.1-0.5c1.5,0,2.7,0.5,3.5,1.5
				c0.9,1,1.3,2.4,1.3,4.2c0,1.7-0.4,3.1-1.3,4.2c-0.9,1-2,1.6-3.4,1.6c-0.8,0-1.6-0.2-2.2-0.5c-0.6-0.3-1.1-0.8-1.5-1.5
				c0,0.3,0.1,0.6,0.1,0.9c0,0.3,0,0.7,0,1.1v4.4H196.9z M199.7,121.8c0,1,0.2,1.7,0.7,2.2c0.5,0.5,1.1,0.8,2,0.8
				c0.8,0,1.5-0.3,2-0.8c0.5-0.5,0.7-1.3,0.7-2.2c0-1-0.2-1.7-0.7-2.3s-1.1-0.8-2-0.8c-0.8,0-1.5,0.3-1.9,0.8
				S199.7,120.8,199.7,121.8z"/>
			<path class="st2" d="M210.9,127.1v-8.2h-1.5v-2.4h1.5v-3.5h3.1v3.5h1.5v2.4H214v8.2H210.9z"/>
			<path class="st2" d="M227.8,122.5h-8c0.1,0.8,0.4,1.3,0.8,1.7c0.4,0.4,1,0.6,1.8,0.6c0.6,0,1-0.1,1.5-0.3s0.7-0.5,1-1l2.5,1.2
				c-0.6,0.9-1.3,1.6-2.1,2.1c-0.8,0.5-1.8,0.7-2.9,0.7c-1.7,0-3.1-0.5-4.1-1.5c-1-1-1.5-2.4-1.5-4.1c0-1.7,0.5-3,1.6-4.1
				c1.1-1.1,2.4-1.6,4-1.6c1.7,0,3,0.5,4,1.5c1,1,1.5,2.4,1.5,4.1c0,0.1,0,0.2,0,0.3C227.8,122.2,227.8,122.3,227.8,122.5z
				 M224.7,120.7c-0.1-0.7-0.3-1.2-0.7-1.5c-0.4-0.3-0.9-0.5-1.6-0.5c-0.7,0-1.2,0.2-1.7,0.5c-0.4,0.3-0.7,0.9-0.8,1.5H224.7z"/>
			<path class="st2" d="M240.8,127.1h-3l0-1.5c-0.4,0.7-0.9,1.2-1.5,1.5c-0.6,0.3-1.3,0.5-2.2,0.5c-1.4,0-2.5-0.5-3.4-1.6
				c-0.9-1-1.3-2.4-1.3-4.2c0-1.8,0.4-3.2,1.3-4.2c0.8-1,2-1.5,3.5-1.5c0.8,0,1.5,0.2,2,0.5c0.6,0.4,1.1,0.9,1.6,1.7
				c0-0.3-0.1-0.5-0.1-0.9c0-0.3,0-0.7,0-1.1v-6.1h2.9V127.1z M238,121.8c0-1-0.2-1.7-0.7-2.3s-1.1-0.8-1.9-0.8
				c-0.8,0-1.5,0.3-2,0.8s-0.7,1.3-0.7,2.3s0.2,1.7,0.7,2.3c0.5,0.5,1.1,0.8,2,0.8c0.9,0,1.5-0.3,2-0.8
				C237.7,123.5,238,122.7,238,121.8z"/>
			<path class="st2" d="M250.9,127.1v-15.9h3.4v6.4h6.9v-6.4h3.4v15.9h-3.4v-6.6h-6.9v6.6H250.9z"/>
			<path class="st2" d="M278.2,122.5h-8c0.1,0.8,0.4,1.3,0.8,1.7c0.4,0.4,1,0.6,1.8,0.6c0.6,0,1-0.1,1.5-0.3c0.4-0.2,0.7-0.5,1-1
				l2.5,1.2c-0.6,0.9-1.3,1.6-2.1,2.1c-0.8,0.5-1.8,0.7-2.9,0.7c-1.7,0-3.1-0.5-4.1-1.5c-1-1-1.5-2.4-1.5-4.1c0-1.7,0.5-3,1.6-4.1
				c1.1-1.1,2.4-1.6,4-1.6c1.7,0,3,0.5,4,1.5c1,1,1.5,2.4,1.5,4.1c0,0.1,0,0.2,0,0.3C278.2,122.2,278.2,122.3,278.2,122.5z
				 M275.1,120.7c-0.1-0.7-0.3-1.2-0.7-1.5c-0.4-0.3-0.9-0.5-1.6-0.5s-1.2,0.2-1.7,0.5s-0.7,0.9-0.8,1.5H275.1z"/>
			<path class="st2" d="M283.5,119.2c0.3-1,0.8-1.8,1.3-2.3c0.6-0.5,1.3-0.8,2.2-0.8c0.2,0,0.5,0,1,0.1c0.1,0,0.2,0,0.2,0l-0.5,3.3
				c-0.2-0.1-0.5-0.2-0.7-0.2c-0.2,0-0.5-0.1-0.7-0.1c-0.9,0-1.6,0.2-2,0.7c-0.4,0.5-0.6,1.3-0.6,2.4v4.7h-3.1v-10.6h3L283.5,119.2z
				"/>
			<path class="st2" d="M299.9,122.5h-8c0.1,0.8,0.4,1.3,0.8,1.7c0.4,0.4,1,0.6,1.8,0.6c0.6,0,1-0.1,1.5-0.3c0.4-0.2,0.7-0.5,1-1
				l2.5,1.2c-0.6,0.9-1.3,1.6-2.1,2.1c-0.8,0.5-1.8,0.7-2.9,0.7c-1.7,0-3.1-0.5-4.1-1.5c-1-1-1.5-2.4-1.5-4.1c0-1.7,0.5-3,1.6-4.1
				c1.1-1.1,2.4-1.6,4-1.6c1.7,0,3,0.5,4,1.5s1.5,2.4,1.5,4.1c0,0.1,0,0.2,0,0.3C300,122.2,300,122.3,299.9,122.5z M296.9,120.7
				c-0.1-0.7-0.3-1.2-0.7-1.5c-0.4-0.3-0.9-0.5-1.6-0.5c-0.7,0-1.2,0.2-1.7,0.5s-0.7,0.9-0.8,1.5H296.9z"/>
		</g>
	</g>
</g>
</svg>
