<?xml version="1.0" encoding="utf-8"?>
<!-- Generator: Adobe Illustrator 19.1.0, SVG Export Plug-In . SVG Version: 6.00 Build 0)  -->
<svg version="1.1" id="Layer_1" xmlns="http://www.w3.org/2000/svg" xmlns:xlink="http://www.w3.org/1999/xlink" x="0px" y="0px"
	 viewBox="0 69.2 300 162.8" style="enable-background:new 0 69.2 300 162.8;" xml:space="preserve">
<style type="text/css">
	.st0{fill:#FC8C06;}
	.st1{opacity:0.25;fill:#FFFFFF;}
	.st2{fill:#FFFFFF;}
</style>
<g>
	<g>
		<g>
			<polygon class="st0" points="46.3,120.2 46.3,201.1 52.7,201.1 52.7,207.4 133.6,207.4 133.6,120.2 			"/>
			<polygon class="st0" points="40.1,93.4 40.1,87.2 13.4,87.2 13.4,120.2 46.3,120.2 46.3,93.4 			"/>
			<rect x="30.8" y="204.4" class="st0" width="18.5" height="18.5"/>
			<rect x="21.8" y="223" class="st0" width="9" height="9"/>
			<rect x="43.5" y="73.6" class="st0" width="16.5" height="16.5"/>
			<rect x="39.1" y="69.2" class="st0" width="4.4" height="4.4"/>
			<rect x="17" y="167.1" class="st0" width="7.3" height="7.3"/>
			<rect x="24.4" y="164.5" class="st0" width="2.6" height="2.6"/>
			<polygon class="st0" points="18.4,150.1 0,150.1 0,168.5 14.7,168.5 14.7,164.8 18.4,164.8 			"/>
		</g>
		<polygon class="st1" points="133.6,120.2 52.7,201.1 46.3,201.1 46.3,120.2 		"/>
		<polygon class="st1" points="60,73.6 43.5,90.1 43.5,73.6 		"/>
		<polygon class="st1" points="40.1,93.4 13.4,120.2 13.4,87.2 40.1,87.2 		"/>
		<polygon class="st1" points="43.5,69.2 39.1,73.6 39.1,69.2 		"/>
		<polygon class="st1" points="18.4,150.1 0,168.5 0,150.1 		"/>
		<polygon class="st1" points="27,164.5 24.4,167.1 24.4,164.5 		"/>
		<polygon class="st1" points="17,174.5 24.4,167.1 17,167.1 		"/>
		<polygon class="st1" points="21.8,232 30.8,223 21.8,223 		"/>
		<polygon class="st1" points="30.8,204.4 49.3,204.4 30.8,223 		"/>
	</g>
	<g>
		<g>
			<path class="st2" d="M171.2,147.7c-1.3-1.1-2.6-2-3.9-2.5c-1.3-0.5-2.8-0.8-4.3-0.8c-3.1,0-5.6,0.9-7.4,2.8
				c-1.9,1.9-2.8,4.4-2.8,7.5c0,3.1,0.9,5.5,2.6,7.3c1.7,1.8,4.1,2.7,7,2.7c1.7,0,3.3-0.3,4.7-0.8c1.5-0.6,2.8-1.4,4-2.5l0,6.4
				c-1.3,0.8-2.7,1.4-4.2,1.8c-1.5,0.4-3,0.6-4.6,0.6c-4.7,0-8.5-1.4-11.5-4.3s-4.5-6.6-4.5-11c0-4.4,1.5-8.1,4.5-11
				c3-2.9,6.9-4.3,11.6-4.3c1.6,0,3.1,0.2,4.6,0.5c1.5,0.3,2.9,0.8,4.4,1.5L171.2,147.7z"/>
			<path class="st2" d="M198.2,169.3H191l-7.7-13.7v13.7H177v-29.2h8.9c3.6,0,6.2,0.7,8,2.1c1.8,1.4,2.7,3.5,2.7,6.2
				c0,2-0.6,3.7-1.8,5.2c-1.2,1.4-2.8,2.3-4.7,2.5L198.2,169.3z M183.3,152.6h0.9c2.5,0,4.2-0.3,5-0.8c0.8-0.6,1.2-1.5,1.2-2.9
				c0-1.4-0.4-2.5-1.3-3.1c-0.9-0.6-2.5-0.9-4.9-0.9h-0.9V152.6z"/>
			<path class="st2" d="M207.1,169.3V156l-9.9-15.9h7.3l4.3,8c0.2,0.4,0.4,0.9,0.7,1.5c0.2,0.6,0.5,1.3,0.7,2.1
				c0.2-0.7,0.4-1.3,0.6-1.9c0.2-0.6,0.5-1.2,0.8-1.8l4.3-8h7.3l-9.9,15.9v13.3H207.1z"/>
			<path class="st2" d="M225.9,169.3v-29.2h7.2c3.8,0,6.7,0.7,8.5,2.2c1.8,1.5,2.7,3.7,2.7,6.8c0,2.8-0.9,5.1-2.8,6.7
				c-1.8,1.6-4.4,2.4-7.7,2.4h-1.7v11.2H225.9z M232.2,153.3h0.9c1.7,0,2.9-0.4,3.7-1.1c0.8-0.7,1.2-1.8,1.2-3.4
				c0-1.4-0.4-2.5-1.2-3.1c-0.8-0.7-2-1-3.7-1h-0.9V153.3z"/>
			<path class="st2" d="M259.5,145.4v23.9h-6.3v-23.9h-7.1v-5.3h20.6v5.3H259.5z"/>
			<path class="st2" d="M300,154.8c0,2.1-0.4,4.1-1.2,5.9c-0.8,1.9-1.9,3.5-3.4,4.9c-1.5,1.5-3.2,2.6-5.1,3.3
				c-1.9,0.8-3.9,1.2-5.9,1.2c-1.8,0-3.5-0.3-5.2-0.9c-1.7-0.6-3.3-1.5-4.7-2.6c-1.8-1.5-3.2-3.2-4.2-5.3c-1-2-1.5-4.2-1.5-6.6
				c0-2.1,0.4-4.1,1.2-5.9c0.8-1.8,1.9-3.5,3.4-4.9c1.5-1.4,3.2-2.5,5.1-3.3c1.9-0.8,3.9-1.2,6-1.2c2,0,4,0.4,5.9,1.2
				c1.9,0.8,3.6,1.9,5.1,3.3c1.5,1.4,2.6,3.1,3.4,4.9C299.6,150.7,300,152.7,300,154.8z M284.4,164.5c2.6,0,4.8-0.9,6.6-2.8
				c1.7-1.9,2.6-4.2,2.6-7c0-2.8-0.9-5.1-2.6-7c-1.7-1.9-3.9-2.8-6.5-2.8c-2.6,0-4.8,0.9-6.6,2.8c-1.7,1.9-2.6,4.2-2.6,7
				c0,2.8,0.9,5.2,2.6,7C279.5,163.6,281.7,164.5,284.4,164.5z"/>
		</g>
		<g>
			<path class="st2" d="M146.4,196.3l6-15.9h3.9l6.1,15.9h-3.9l-1.3-3.4h-6.1l-1.1,3.4H146.4z M156.5,190.2l-1.8-5.1
				c-0.1-0.2-0.1-0.4-0.2-0.8s-0.2-0.8-0.2-1.4c-0.1,0.5-0.2,1-0.3,1.4s-0.2,0.7-0.2,0.8l-1.7,5.1H156.5z"/>
			<path class="st2" d="M171.6,196c-0.4,0.3-0.9,0.4-1.3,0.6c-0.5,0.1-1,0.2-1.5,0.2c-1.7,0-3-0.5-4.1-1.6c-1.1-1.1-1.6-2.5-1.6-4.2
				c0-1.7,0.5-3,1.6-4.1c1.1-1.1,2.4-1.6,4.1-1.6c0.6,0,1.1,0.1,1.5,0.2c0.4,0.1,0.9,0.3,1.3,0.5l0,3.1c-0.3-0.3-0.7-0.6-1.1-0.8
				c-0.4-0.2-0.9-0.3-1.4-0.3c-0.9,0-1.6,0.3-2.1,0.8c-0.5,0.5-0.8,1.2-0.8,2.1c0,0.9,0.3,1.6,0.8,2.1s1.2,0.8,2.2,0.8
				c0.5,0,0.9-0.1,1.3-0.3c0.4-0.2,0.7-0.5,1.1-0.8L171.6,196z"/>
			<path class="st2" d="M181.8,196c-0.4,0.3-0.9,0.4-1.3,0.6c-0.5,0.1-1,0.2-1.5,0.2c-1.7,0-3-0.5-4.1-1.6c-1.1-1.1-1.6-2.5-1.6-4.2
				c0-1.7,0.5-3,1.6-4.1c1.1-1.1,2.4-1.6,4.1-1.6c0.6,0,1.1,0.1,1.5,0.2c0.4,0.1,0.9,0.3,1.3,0.5l0,3.1c-0.3-0.3-0.7-0.6-1.1-0.8
				c-0.4-0.2-0.9-0.3-1.4-0.3c-0.9,0-1.6,0.3-2.1,0.8c-0.5,0.5-0.8,1.2-0.8,2.1c0,0.9,0.3,1.6,0.8,2.1s1.2,0.8,2.2,0.8
				c0.5,0,0.9-0.1,1.3-0.3c0.4-0.2,0.7-0.5,1.1-0.8L181.8,196z"/>
			<path class="st2" d="M194.5,191.7h-8c0.1,0.8,0.4,1.3,0.8,1.7s1,0.6,1.8,0.6c0.6,0,1-0.1,1.5-0.3c0.4-0.2,0.7-0.5,1-1l2.5,1.2
				c-0.6,0.9-1.3,1.6-2.1,2.1c-0.8,0.5-1.8,0.7-2.9,0.7c-1.7,0-3.1-0.5-4.1-1.5c-1-1-1.5-2.4-1.5-4.1c0-1.7,0.5-3,1.6-4.1
				s2.4-1.6,4-1.6c1.7,0,3,0.5,4,1.5c1,1,1.5,2.4,1.5,4.1c0,0.1,0,0.2,0,0.3C194.6,191.3,194.5,191.5,194.5,191.7z M191.5,189.9
				c-0.1-0.7-0.3-1.2-0.7-1.5c-0.4-0.3-0.9-0.5-1.6-0.5c-0.7,0-1.2,0.2-1.7,0.5s-0.7,0.9-0.8,1.5H191.5z"/>
			<path class="st2" d="M196.9,201.1v-15.5h3v1.8c0.4-0.7,0.9-1.2,1.5-1.6c0.6-0.4,1.3-0.5,2.1-0.5c1.5,0,2.7,0.5,3.5,1.5
				c0.9,1,1.3,2.4,1.3,4.2c0,1.7-0.4,3.1-1.3,4.2s-2,1.6-3.4,1.6c-0.8,0-1.6-0.2-2.2-0.5c-0.6-0.3-1.1-0.8-1.5-1.5
				c0,0.3,0.1,0.6,0.1,0.9c0,0.3,0,0.7,0,1.1v4.4H196.9z M199.7,190.9c0,1,0.2,1.7,0.7,2.2c0.5,0.5,1.1,0.8,2,0.8
				c0.8,0,1.5-0.3,2-0.8c0.5-0.5,0.7-1.3,0.7-2.2s-0.2-1.7-0.7-2.3c-0.5-0.6-1.1-0.8-2-0.8c-0.8,0-1.5,0.3-1.9,0.8
				S199.7,190,199.7,190.9z"/>
			<path class="st2" d="M210.9,196.3v-8.2h-1.5v-2.4h1.5v-3.5h3.1v3.5h1.5v2.4H214v8.2H210.9z"/>
			<path class="st2" d="M227.8,191.7h-8c0.1,0.8,0.4,1.3,0.8,1.7c0.4,0.4,1,0.6,1.8,0.6c0.6,0,1-0.1,1.5-0.3c0.4-0.2,0.7-0.5,1-1
				l2.5,1.2c-0.6,0.9-1.3,1.6-2.1,2.1c-0.8,0.5-1.8,0.7-2.9,0.7c-1.7,0-3.1-0.5-4.1-1.5c-1-1-1.5-2.4-1.5-4.1c0-1.7,0.5-3,1.6-4.1
				s2.4-1.6,4-1.6c1.7,0,3,0.5,4,1.5c1,1,1.5,2.4,1.5,4.1c0,0.1,0,0.2,0,0.3C227.8,191.3,227.8,191.5,227.8,191.7z M224.7,189.9
				c-0.1-0.7-0.3-1.2-0.7-1.5c-0.4-0.3-0.9-0.5-1.6-0.5c-0.7,0-1.2,0.2-1.7,0.5c-0.4,0.3-0.7,0.9-0.8,1.5H224.7z"/>
			<path class="st2" d="M240.8,196.3h-3l0-1.5c-0.4,0.7-0.9,1.2-1.5,1.5c-0.6,0.3-1.3,0.5-2.2,0.5c-1.4,0-2.5-0.5-3.4-1.6
				s-1.3-2.4-1.3-4.2c0-1.8,0.4-3.2,1.3-4.2c0.8-1,2-1.5,3.5-1.5c0.8,0,1.5,0.2,2,0.5s1.1,0.9,1.6,1.7c0-0.3-0.1-0.5-0.1-0.9
				s0-0.7,0-1.1v-6.1h2.9V196.3z M238,190.9c0-1-0.2-1.7-0.7-2.3s-1.1-0.8-1.9-0.8c-0.8,0-1.5,0.3-2,0.8c-0.5,0.5-0.7,1.3-0.7,2.3
				s0.2,1.7,0.7,2.3s1.1,0.8,2,0.8c0.9,0,1.5-0.3,2-0.8S238,191.9,238,190.9z"/>
			<path class="st2" d="M250.9,196.3v-15.9h3.4v6.4h6.9v-6.4h3.4v15.9h-3.4v-6.6h-6.9v6.6H250.9z"/>
			<path class="st2" d="M278.2,191.7h-8c0.1,0.8,0.4,1.3,0.8,1.7c0.4,0.4,1,0.6,1.8,0.6c0.6,0,1-0.1,1.5-0.3c0.4-0.2,0.7-0.5,1-1
				l2.5,1.2c-0.6,0.9-1.3,1.6-2.1,2.1c-0.8,0.5-1.8,0.7-2.9,0.7c-1.7,0-3.1-0.5-4.1-1.5c-1-1-1.5-2.4-1.5-4.1c0-1.7,0.5-3,1.6-4.1
				s2.4-1.6,4-1.6c1.7,0,3,0.5,4,1.5c1,1,1.5,2.4,1.5,4.1c0,0.1,0,0.2,0,0.3C278.2,191.3,278.2,191.5,278.2,191.7z M275.1,189.9
				c-0.1-0.7-0.3-1.2-0.7-1.5c-0.4-0.3-0.9-0.5-1.6-0.5s-1.2,0.2-1.7,0.5c-0.4,0.3-0.7,0.9-0.8,1.5H275.1z"/>
			<path class="st2" d="M283.5,188.4c0.3-1,0.8-1.8,1.3-2.3c0.6-0.5,1.3-0.8,2.2-0.8c0.2,0,0.5,0,1,0.1c0.1,0,0.2,0,0.2,0l-0.5,3.3
				c-0.2-0.1-0.5-0.2-0.7-0.2c-0.2,0-0.5-0.1-0.7-0.1c-0.9,0-1.6,0.2-2,0.7c-0.4,0.5-0.6,1.3-0.6,2.4v4.7h-3.1v-10.6h3L283.5,188.4z
				"/>
			<path class="st2" d="M299.9,191.7h-8c0.1,0.8,0.4,1.3,0.8,1.7s1,0.6,1.8,0.6c0.6,0,1-0.1,1.5-0.3s0.7-0.5,1-1l2.5,1.2
				c-0.6,0.9-1.3,1.6-2.1,2.1c-0.8,0.5-1.8,0.7-2.9,0.7c-1.7,0-3.1-0.5-4.1-1.5s-1.5-2.4-1.5-4.1c0-1.7,0.5-3,1.6-4.1s2.4-1.6,4-1.6
				c1.7,0,3,0.5,4,1.5c1,1,1.5,2.4,1.5,4.1c0,0.1,0,0.2,0,0.3S300,191.5,299.9,191.7z M296.9,189.9c-0.1-0.7-0.3-1.2-0.7-1.5
				s-0.9-0.5-1.6-0.5c-0.7,0-1.2,0.2-1.7,0.5s-0.7,0.9-0.8,1.5H296.9z"/>
		</g>
	</g>
</g>
</svg>
